/* XPM */
static char *xnee[] = {
/* columns rows colors chars-per-pixel */
"128 128 33 1",
"  c #000000",
". c #0A0A0A",
"X c #121212",
"o c #1B1B1B",
"O c gray14",
"+ c #2B2B2B",
"@ c #333333",
"# c #3B3B3B",
"$ c #434343",
"% c #4A4A4A",
"& c #535353",
"* c #5B5B5B",
"= c #636363",
"- c #6A6A6A",
"; c #737373",
": c #7B7B7B",
"> c #838383",
", c #8B8B8B",
"< c #939393",
"1 c #9C9C9C",
"2 c #A3A3A3",
"3 c #A8A8A8",
"4 c #B2B2B2",
"5 c #BBBBBB",
"6 c #C3C3C3",
"7 c #CBCBCB",
"8 c #D1D1D1",
"9 c #D9D9D9",
"0 c #E4E4E4",
"q c #EAEAEA",
"w c #F2F2F2",
"e c #FEFEFE",
"r c None",
/* pixels */
"rrrrrrrrrrrrrrrrrrrrrrrrrrrrrrrrrrrrrrrrrrrrrrrrrrrrrrrrrrrrrrrrrrrrrrrrrrrrrrrrrrrrrrrrrrrrrrrrrrrrrrrrrrrrrrrrrrrrrrrrrrrrrrrr",
"rrrrrrrrrrrrrrrrrrrrrrrrrrrrrrrrrrrrrrrrrrrrrrrrrrrrrrrrrrrrrrrrrrrrrrrrrrrrrrrrrrrrrrrrrrrrrrrrrrrrrrrrrrrrrrrrrrrrrrrrrrrrrrrr",
"rrrrrrrrrrrrrrrrrrrrrrrrrrrrrrrrrrrrrrrrrrrrrrrrrrrrrrrrrrrrrrrrrrrrrrrrrrrrrrrrrrrrrrrrrrrrrrrrrrrrrrrrrrrrrrrrrrrrrrrrrrrrrrrr",
"rrrrrrrrrrrrrrrrrrrrrrrrrrrrrrrrrrrrrrrrrrrrrrrrrrrrrrrrrrrrrrrrrrrrrrrrrrrrrrrrrrrrrrrrrrrrrrrrrrrrrrrrrrrrrrrrrrrrrrrrrrrrrrrr",
"rrrrrrrrrrrrrrrrrrrrrrrrrrrrrrrrrrrrrrrrr                 rrrrrrrrrrrrrrrrrrrrrrrrrrrrrrrrrrrrrrrrrrrrrrrrrrrrrrrrrrrrrrrrrrrrrr",
"rrrrrrrrrrrrrrrrrrrrrrrrrrrrrrrrrrrrrrrrr                                                    rrrrrrrrrrrrrrrrrrrrrrrrrrrrrrrrrrr",
"rrrrrrrrrrrrrrrrrrrrrrrrrrrrrrrrrrrrrrrrr                                                   rrrrrrrrrrrrrrrrrrrrrrrrrrrrrrrrrrrr",
"rrrrrrrrrrrrrrrrrrrrrrrrrrrrrrrrrrrrrrrrr                                                   rrrrrrrrrrrrrrrrrrrrrrrrrrrrrrrrrrrr",
"rrrrrrrrrrrrrrrrrrrrrrrrrrrrrrrrrrrrrrrrr                                                   rrrrrrrrrrrrrrrrrrrrrrrrrrrrrrrrrrrr",
"rrrrrrrrrrrrrrrrrrrrrrrrrrrrrrrrrrrrrrrrr    .,,>>>>>>>:::::::;:;;;;;-;------=--;===*=#     rrrrrrrrrrrrrrrrrrrrrrrrrrrrrrrrrrrr",
"rrrrrrrrrrrrrrrrrrrrrrrrrrrrrrrrrrrrrrrrr     233333333333333333333333333333234we63333%    rrrrrrrrrrrrrrrrrrrrrrrrrrrrrrrrrrrrr",
"rrrrrrrrrrrrrrrrrrrrrrrrrrrrrrrrrrrrrrrrr     133333333333333333333333333333338ee03333+    rrrrrrrrrrrrrrrrrrrrrrrrrrrrrrrrrrrrr",
"rrrrrrrrrrrrrrrrrrrrrrrrrrrrrrrrrrrrrrrrr     ,33333333333333333333333333333339ee93333     rrrrrrrrrrrrrrrrrrrrrrrrrrrrrrrrrrrrr",
"rrrrrrrrrrrrrrrrrrrrrrrrrrrrrrrrrrrrrrrrr     :33333333333333333333333333333330ee8333>     rrrrrrrrrrrrrrrrrrrrrrrrrrrrrrrrrrrrr",
"rrrrrrrrrrrrrrrrrrrrrrrrrrrrrrrrrrrrrrrrrr    -3333333333333323333333332333333wee7333*     rrrrrrrrrrrrrrrrrrrrrrrrrrrrrrrrrrrrr",
"rrrrrrrrrrrrrrrrrrrrrrrrrrrrrrrrrrrrrrrrrr    *3333332333333333333323333333332eee5332#    rrrrrrrrrrrrrrrrrrrrrrrrrrrrrrrrrrrrrr",
"rrrrrrrrrrrrrrrrrrrrrrrrrrrrrrrrrrrrrrrrrr    %3333333333333333333333333333334eee4333.    rrrrrrrrrrrrrrrrrrrrrrrrrrrrrrrrrrrrrr",
"rrrrrrrrrrrrrrrrrrrrrrrrrrrrrrrrrrrrrrrrrr    #2333332333333<*#OX+#=1333333325eee233<     rrrrrrrrrrrrrrrrrrrrrrrrrrrrrrrrrrrrrr",
"rrrrrrrrrrrrrrrrrrrrrrrrrrrrrrrrrrrrrrrrrr    +33333333333<$        .%13333337eew333-     rrrrrrrrrrrrrrrrrrrrrrrrrrrrrrrrrrrrrr",
"rrrrrrrrrrrrrrrrrrrrrrrrrrrrrrrrrrrrrrrrrr    o3333333333>.           X<333338ee0233$    rrrrrrrrrrrrrrrrrrrrrrrrrrrrrrrrrrrrrrr",
"rrrrrrrrrrrrrrrrrrrrrrrrrrrrrrrrrrrrrrrrrr     333333333<.   .%;>-%    o133339ee9333o    rrrrrrrrrrrrrrrrrrrrrrrrrrrrrrrrrrrrrrr",
"rrrrrrrrrrrrrrrrrrrrrrrrrrrrrrrrrrrrrrrrrr     133323333O   -7999996*   #3333qee8232     rrrrrrrrrrrrrrrrrrrrrrrrrrrrrrrrrrrrrrr",
"rrrrrrrrrrrrrrrrrrrrrrrrrrrrrrrrrrrrrrrrrr     <33333331   ;899999999&  .3333wee633:     rrrrrrrrrrrrrrrrrrrrrrrrrrrrrrrrrrrrrrr",
"rrrrrrrrrrrrrrrrrrrrrrrrrrrrrrrrrrrrrrrrrr     :3333333;   89999999994   ,333eee533%    rrrrrrrrrrrrrrrrrrrrrrrrrrrrrrrrrrrrrrrr",
"rrrrrrrrrrrrrrrrrrrrrrrrrrrrrrrrrrrrrrrrrrr    -3333332-  .99999999996   :334eee333+    rrrrrrrrrrrrrrrrrrrrrrrrrrrrrrrrrrrrrrrr",
"rrrrrrrrrrrrrrrrrrrrrrrrrrrrrrrrrrrrrrrrr      =3333333<   <999998999;   3336eew333     rrrrrrrrrrrrrrrrrrrrrrrrrrrrrrrrrrrrrrrr",
"rrrrrrrrrrrrrrrrrrrrrrrrrrrrrrrrrrrrrrr        %33332333X  .29989999,   @3337eew33,      rrrrrrrrrrrrrrrrrrrrrrrrrrrrrrrrrrrrrrr",
"rrrrrrrrrrrrrrrrrrrrrrrrrrrrrrrrrrrrr          #33333333:    @>241:O   .,3338ee933*        rrrrrrrrrrrrrrrrrrrrrrrrrrrrrrrrrrrrr",
"rrrrrrrrrrrrrrrrrrrrrrrrrrrrrrrrrrrr           +333333333-             >33339ee933#         rrrrrrrrrrrrrrrrrrrrrrrrrrrrrrrrrrrr",
"rrrrrrrrrrrrrrrrrrrrrrrrrrrrrrrrrr        +O    ,333333333;o         O>333335ew533.           rrrrrrrrrrrrrrrrrrrrrrrrrrrrrrrrrr",
"rrrrrrrrrrrrrrrrrrrrrrrrrrrrrrrr        O69>    .:2333333333-@o   o#:333333333433<     %+       rrrrrrrrrrrrrrrrrrrrrrrrrrrrrrrr",
"rrrrrrrrrrrrrrrrrrrrrrrrrrrrrr        X=5ee9+     ;333333333333212333333333333333&    X23-X      rrrrrrrrrrrrrrrrrrrrrrrrrrrrrrr",
"rrrrrrrrrrrrrrrrrrrrrrrrrrrr        .&115eew:      @,33333333333333333333333323,+     ;wew5$       rrrrrrrrrrrrrrrrrrrrrrrrrrrrr",
"rrrrrrrrrrrrrrrrrrrrrrrrrr         %<<<12eee3O       $13333333333333333333323,%      O2eeee01O      rrrrrrrrrrrrrrrrrrrrrrrrrrrr",
"rrrrrrrrrrrrrrrrrrrrrrrr         #,1<1<11wee6;         @-133333333333333331*O        :18eeeee9;.      rrrrrrrrrrrrrrrrrrrrrrrrrr",
"rrrrrrrrrrrrrrrrrrrrrrr        @><111128weee91O           @%=>13333321:*#O          @1214qeeeew6#       rrrrrrrrrrrrrrrrrrrrrrrr",
"rrrrrrrrrrrrrrrrrrrrr        O;1111139eeeeee81-                 X...                >211125weeeew2o      rrrrrrrrrrrrrrrrrrrrrrr",
"rrrrrrrrrrrrrrrrrrr        o-11<<140eeeeee83<&o                                    $122111127eeeee0:       rrrrrrrrrrrrrrrrrrrrr",
"rrrrrrrrrrrrrrrrr        X=<1<115qeeeeew71>#                                      .<11211112229eeeee8%       rrrrrrrrrrrrrrrrrrr",
"rrrrrrrrrrrrrrr        .&<11116weeeeew61-O          rrrr                    rr    &1211122111114qeeeew4O      rrrrrrrrrrrrrrrrrr",
"rrrrrrrrrrrrrrr       %,11<27weeeeeq5<%.          rrrrrrrrrr           rrrrrrr    ;111211122111215weeeew,       rrrrrrrrrrrrrrrr",
"rrrrrrrrrrrrrrr     #,<1138eeeeee94;@          rrrrrrrrrrrrrrrrrrrrrrrrrrrrrr      O;121211112111227weeee9*       rrrrrrrrrrrrrr",
"rrrrrrrrrrrrrrr    -11<14eeeeee92*o          rrrrrrrrrrrrrrrrrrrrrrrrrrrrrrrr        o-121211122121139eeeee6+      rrrrrrrrrrrrr",
"rrrrrrrrrrrrrrr    ;111<5eeew8<#.          rrrrrrrrrrrrrrrrrrrrrrrrrrrrrrrrrrrr        o=11121111112114qeeeew1.      rrrrrrrrrrr",
"rrrrrrrrrrrrrrr    :11<15eew>+          rrrrrrrrrrrrrrrrrrrrrrrrrrrrrrrrrrrrrrrrr        o=12111212112115weeeeq-      rrrrrrrrrr",
"rrrrrrrrrrrrrrr    ;<<116ee0=         rrrrrrrrrrrrrrrrrrrrrrrrrrrrrrrrrrrrrrrrrrrrrr       X*11121111121127eeeee<.     rrrrrrrrr",
"rrrrrrrrrrrrrrr    ;1<1<6ee0=       rrrrrrrrrrrrrrrrrrrrrrrrrrrrrrrrrrrrrrrrrrrrrrrrrr       .*11211221122139eee2<+    rrrrrrrrr",
"rrrrrrrrrrrrrrr    :<1<17ee9*    rrrrrrrrrrrrrrrrrrrrrrrrrrrrrrrrrrrrrrrrrrrrrrrrrrrrrrr       .%112111211119ee012+   rrrrrrrrrr",
"rrrrrrrrrrrrrrr    :<<1<7ee9*    rrrrrrrrrrrrrrrrrrrrrrrrrrrrrrrrrrrrrrrrrrrrrrrrrrrrrrrrr       .-111122111wee62<    rrrrrrrrrr",
"rrrrrrrrrrrrrrr    ;11117ee9*    rrrrrrrrrrrrrrrrrrrrrrrrrrrrrrrrrrrrrrrrrrrrrrrrrrrrrrrrrrr      -112111125eee21=    rrrrrrrrrr",
"rrrrrrrrrrrrrrr    :11<18ee9&    rrrrrrrrrrrrrrrrrrrrrrrrrrrrrrrrrrrrrrrrrrrrrrrrrrrrrrrrrrrrr    ,221211229eeq11@   rrrrrrrrrrr",
"rrrrrrrrrrrrrrr    ;<<1<8ee9%    rrrrrrrrrrrrrrrrrrrrrrrrrrrrrrrrrrrrrrrrrrrrrrrrrrrrrrrrrrrrr   .112111112wee621    rrrrrrrrrrr",
"rrrrrrrrrrrrrrr    ;11<19ee8%    rrrrrrrrrrrrrrrrrrrrrrrrrrrrrrrrrrrrrrrrrrrrrrrrrrrrrrrrrrrrr   +221122224eee21-    rrrrrrrrrrr",
"rrrrrrrrrrrrrrr    :<11<9ee8%                                                                    %112111119eeq21#   rrrrrrrrrrrr",
"rrrrrrrrrrrrrrr    ;1<<19ee8%                                                                    ;21112112wee711.   rrrrrrrrrrrr",
"rrrrrrrrrrrrrrr    ;11<19ee7%                                                                    ,11211124eee32:    rrrrrrrrrrrr",
"rrrrrrrrrrrrrrr    ;1<119ee7%                                                                   .221112118eeq21#   rrrrrrrrrrrrr",
"rrrrrrrrrrrrrrr    :1<<10ee6$                                                                   +21121212wee711X   rrrrrrrrrrrrr",
"rrrrrrrrrrrrrrr    ;<11<0ee6$       *,,>>>>>>:>::::::;:;;;;;;;-;-;---=-========*******&*&&@     %21112114eee32:    rrrrrrrrrrrrr",
"rrrrrrrrrrrrrrr    :1<116ew2#       278888888888888888888888888888888888888878888888888888,     ;21211128eew21%   rrrrrrrrrrrrrr",
"rrrrrrrrrrrrrrr    :<11<<211#       6888888878888888888888888888888888888888888888878888883     <2211121wee812o   rrrrrrrrrrrrrr",
"rrrrrrrrrrrrrrr    ;<11<<1<1#      .8888888888888888888888888888888888888888888888888888886     11112114eee31>    rrrrrrrrrrrrrr",
"rrrrrrrrrrrrrrr    :11<111<<#      +8888888888888888888788888888888878888888888888887888888.    11121228eew12%    rrrrrrrrrrrrrr",
"rrrrrrrrrrrrrrr    ;<11<1<11@      $88888-========--=---------;--;-;;;;;;;:;;:;:::::1888888O    <212111qee822O   rrrrrrrrrrrrrrr",
"rrrrrrrrrrrrrrr    O*>1111<1@      =88888                .   .   . .. .. . ... .... @888888#    >1121110ee42,    rrrrrrrrrrrrrrr",
"rrrrrrrrrrrrrrr       X$;<11@      >88884                                           X888888*    -11212238511*    rrrrrrrrrrrrrrr",
"rrrrrrrrrrrrrrr          .@=+      188881.      @$##$##                 o%%          788888;    *12112111112+   rrrrrrrrrrrrrrrr",
"rrrrrrrrrrrrrrr                    58888>.      $eeeeee=               .9e>          388888,    X=,11112121<    rrrrrrrrrrrrrrrr",
"rrrrrrrrrrrrrrrrrr                 88888-        >eeeeew+              3e4          .,888882       o%:11121-    rrrrrrrrrrrrrrrr",
"rrrrrrrrrrrrrrrrrrrrrr            O88888$         6eeeee9.            :e9.           -888885          .@=<1@   rrrrrrrrrrrrrrrrr",
"rrrrrrrrrrrrrrrrrrrrrrrrr         #88888+         oqeeeee1           %ew+            %888888.             O    rrrrrrrrrrrrrrrrr",
"rrrrrrrrrrrrrrrrrrrrrrrrrrrrr     =88888X          %eeeeee&         Oqe&             O888888O                  rrrrrrrrrrrrrrrrr",
"rrrrrrrrrrrrrrrrrrrrrrrrrrrrr     ;88888            <eeeeewo       .8e,              .788888#     rrr         rrrrrrrrrrrrrrrrrr",
"rrrrrrrrrrrrrrrrrrrrrrrrrrrrr     188885             7eeeee7       2e5                688888&     rrrrrr      rrrrrrrrrrrrrrrrrr",
"rrrrrrrrrrrrrrrrrrrrrrrrrrrrr     488881.            Oweeeee,     ;e9X               .288888-     rrrrrrrrrr  rrrrrrrrrrrrrrrrrr",
"rrrrrrrrrrrrrrrrrrrrrrrrrrrrr     88888>.             &eeeeee%   #ew@                .>88888,     rrrrrrrrrrrrrrrrrrrrrrrrrrrrrr",
"rrrrrrrrrrrrrrrrrrrrrrrrrrrr     o88888-               1eeeeeqo oqe=                  =888882     rrrrrrrrrrrrrrrrrrrrrrrrrrrrrr",
"rrrrrrrrrrrrrrrrrrrrrrrrrrrr     #88888%                8eeeee5.7e<                   #888886     rrrrrrrrrrrrrrrrrrrrrrrrrrrrrr",
"rrrrrrrrrrrrrrrrrrrrrrrrrrrr     *88888+                +weeee31e6                    o888887     rrrrrrrrrrrrrrrrrrrrrrrrrrrrrr",
"rrrrrrrrrrrrrrrrrrrrrrrrrrrr     ;88888X                 =eee8;ewo                     888888O     rrrrrrrrrrrrrrrrrrrrrrrrrrrrr",
"rrrrrrrrrrrrrrrrrrrrrrrrrrrr     <88888                   5ew*wee%                     588888#     rrrrrrrrrrrrrrrrrrrrrrrrrrrrr",
"rrrrrrrrrrrrrrrrrrrrrrrrrrrr     388885                  #we=0eeewO                    188888%     rrrrrrrrrrrrrrrrrrrrrrrrrrrrr",
"rrrrrrrrrrrrrrrrrrrrrrrrrrrr     788882.                X0e:3eeeee6                   .:88888-     rrrrrrrrrrrrrrrrrrrrrrrrrrrrr",
"rrrrrrrrrrrrrrrrrrrrrrrrrrr     X88888,.                6e4 $eeeeee>                   *88888,     rrrrrrrrrrrrrrrrrrrrrrrrrrrrr",
"rrrrrrrrrrrrrrrrrrrrrrrrrrr     @88888;                ,e9X  >eeeeew$                  @888882     rrrrrrrrrrrrrrrrrrrrrrrrrrrrr",
"rrrrrrrrrrrrrrrrrrrrrrrrrrr     %88888%               &ew+    6eeeeeqX                 .888886     rrrrrrrrrrrrrrrrrrrrrrrrrrrrr",
"rrrrrrrrrrrrrrrrrrrrrrrrrrr     ;88888+              +we%     oqeeeee5                  888887     rrrrrrrrrrrrrrrrrrrrrrrrrrrrr",
"rrrrrrrrrrrrrrrrrrrrrrrrrrr     ,88888o             .9e>       %eeeeee:                .388888o     rrrrrrrrrrrrrrrrrrrrrrrrrrrr",
"rrrrrrrrrrrrrrrrrrrrrrrrrrr     388888              3e5         >eeeeew#               .<88888#     rrrrrrrrrrrrrrrrrrrrrrrrrrrr",
"rrrrrrrrrrrrrrrrrrrrrrrrrrr     688886             :e9X          6eeeee9X               ;88888%     rrrrrrrrrrrrrrrrrrrrrrrrrrrr",
"rrrrrrrrrrrrrrrrrrrrrrrrrrr    X888883.           $ww@           oqeeeee4               %88888-     rrrrrrrrrrrrrrrrrrrrrrrrrrrr",
"rrrrrrrrrrrrrrrrrrrrrrrrrr     +88888,.          Oqe*             $eeeeee-              O88888>     rrrrrrrrrrrrrrrrrrrrrrrrrrrr",
"rrrrrrrrrrrrrrrrrrrrrrrrrr     %88888;.          7e<               >eeeeew+             .888882     rrrrrrrrrrrrrrrrrrrrrrrrrrrr",
"rrrrrrrrrrrrrrrrrrrrrrrrrr     =88888%          *52                 <44444,              688885     rrrrrrrrrrrrrrrrrrrrrrrrrrrr",
"rrrrrrrrrrrrrrrrrrrrrrrrrr     >88888@                                                  .288888     rrrrrrrrrrrrrrrrrrrrrrrrrrrr",
"rrrrrrrrrrrrrrrrrrrrrrrrrr     288888o                                                  .>88888o     rrrrrrrrrrrrrrrrrrrrrrrrrrr",
"rrrrrrrrrrrrrrrrrrrrrrrrrr     588888            .  . .......................  ..        -88888@     rrrrrrrrrrrrrrrrrrrrrrrrrrr",
"rrrrrrrrrrrrrrrrrrrrrrrrrr    .888887*&**==----;;;:::>>>>>,,,,<<<<11122233334454556666677788888%     rrrrrrrrrrrrrrrrrrrrrrrrrrr",
"rrrrrrrrrrrrrrrrrrrrrrrrr     O8888888888888888888888888888888888888888888888888888888888888888-     rrrrrrrrrrrrrrrrrrrrrrrrrrr",
"rrrrrrrrrrrrrrrrrrrrrrrrr     $8888888888888888888888888888888888888888888888888888888888888888>     rrrrrrrrrrrrrrrrrrrrrrrrrrr",
"rrrrrrrrrrrrrrrrrrrrrrrrr     =88888878888888888888888888888888888888887888888888888888888888881     rrrrrrrrrrrrrrrrrrrrrrrrrrr",
"rrrrrrrrrrrrrrrrrrrrrrrrr     @***=*=======-=--------;;-;;;;;:;:::::::>>>>>>>>>,>,,,,,,,,<,<<<<>     rrrrrrrrrrrrrrrrrrrrrrrrrrr",
"rrrrrrrrrrrrrrrrrrrrrrrrr                                                                            rrrrrrrrrrrrrrrrrrrrrrrrrrr",
"rrrrrrrrrrrrrrrrrrrrrrrrr                                                                             rrrrrrrrrrrrrrrrrrrrrrrrrr",
"rrrrrrrrrrrrrrrrrrrrrrrrr                                                                             rrrrrrrrrrrrrrrrrrrrrrrrrr",
"rrrrrrrrrrrrrrrrrrrrrrrr                                                                              rrrrrrrrrrrrrrrrrrrrrrrrrr",
"rrrrrrrrrrrrrrrrrrrrrrrr                      &>>>>>>::>:::::::;:;;;;;;;;;-;-@                        rrrrrrrrrrrrrrrrrrrrrrrrrr",
"rrrrrrrrrrrrrrrrrrrrrrrrrrrrrrrrrrrrrrrrrrrrr  ;88888888888888888888888788885. rrrrrrrrrrrrrrrrrrrrrrrrrrrrrrrrrrrrrrrrrrrrrrrrr",
"rrrrrrrrrrrrrrrrrrrrrrrrr                       +**====--;;;;;::>:>>>,,,<,<<#                        rrrrrrrrrrrrrrrrrrrrrrrrrrr",
"rrrrrrrrrrrrrrrrrrrrrrrrr                                                                            rrrrrrrrrrrrrrrrrrrrrrrrrrr",
"rrrrrrrrrrrrrrrrrrrrrrrrr                                                                            rrrrrrrrrrrrrrrrrrrrrrrrrrr",
"rrrrrrrrrrrrrrrrrrrrrrrrr                                                                            rrrrrrrrrrrrrrrrrrrrrrrrrrr",
"rrrrrrrrrrrrrrrrrrrrrrrrr    #-;::::>>>,,,<<11112221111<<<<,,,,>>>:>:::;;;;----=--=-=-=--=-=-=--$    rrrrrrrrrrrrrrrrrrrrrrrrrrr",
"rrrrrrrrrrrrrrrrrrrrrrrrr    -888888888888888878887888788888888888888888888888888888888888888888<    rrrrrrrrrrrrrrrrrrrrrrrrrrr",
"rrrrrrrrrrrrrrrrrrrrrrrrr    ;8888888888888888888888888888888888888888888878888888888888888888881    rrrrrrrrrrrrrrrrrrrrrrrrrrr",
"rrrrrrrrrrrrrrrrrrrrrrrrr    ;8888888888888888888888888888888888888888888888888888888888888888882    rrrrrrrrrrrrrrrrrrrrrrrrrrr",
"rrrrrrrrrrrrrrrrrrrrrrrrr    ;8888888888888888888888888888888888888888888888888888888888888788883    rrrrrrrrrrrrrrrrrrrrrrrrrrr",
"rrrrrrrrrrrrrrrrrrrrrrrrr    :8888888888888888888888888888888788888888888888888888888888888888884    rrrrrrrrrrrrrrrrrrrrrrrrrrr",
"rrrrrrrrrrrrrrrrrrrrrrrrr    >8888888888888888888888888788888888888888888888878888888888888888886    rrrrrrrrrrrrrrrrrrrrrrrrrrr",
"rrrrrrrrrrrrrrrrrrrrrrrrr    +%$$$$%$$$##$#$#$#$###########@#@#@@@@@@@@@@@+@@@@++@+++++++++++O+OO    rrrrrrrrrrrrrrrrrrrrrrrrrrr",
"rrrrrrrrrrrrrrrrrrrrrrrrr                                                                            rrrrrrrrrrrrrrrrrrrrrrrrrrr",
"rrrrrrrrrrrrrrrrrrrrrrrrr                                                                            rrrrrrrrrrrrrrrrrrrrrrrrrrr",
"rrrrrrrrrrrrrrrrrrrrrrrrr                                                                            rrrrrrrrrrrrrrrrrrrrrrrrrrr",
"rrrrrrrrrrrrrrrrrrrrrrrrr                                            rrrrrrrrrrrrrrrrrrrrrrrrrrrrrrrrrrrrrrrrrrrrrrrrrrrrrrrrrrr",
"rrrrrrrrrrrrrrrrrrrrrrrrrrrrrrrrrrrrrrrrrrrrrrrrrrrrrrrrrrrrrrrrrrrrrrrrrrrrrrrrrrrrrrrrrrrrrrrrrrrrrrrrrrrrrrrrrrrrrrrrrrrrrrrr",
"rrrrrrrrrrrrrrrrrrrrrrrrrrrrrrrrrrrrrrrrrrrrrrrrrrrrrrrrrrrrrrrrrrrrrrrrrrrrrrrrrrrrrrrrrrrrrrrrrrrrrrrrrrrrrrrrrrrrrrrrrrrrrrrr",
"rrrrrrrrrrrrrrrrrrrrrrrrrrrrrrrrrrrrrrrrrrrrrrrrrrrrrrrrrrrrrrrrrrrrrrrrrrrrrrrrrrrrrrrrrrrrrrrrrrrrrrrrrrrrrrrrrrrrrrrrrrrrrrrr",
"rrrrrrrrrrrrrrrrrrrrrrrrrrrrrrrrrrrrrrrrrrrrrrrrrrrrrrrrrrrrrrrrrrrrrrrrrrrrrrrrrrrrrrrrrrrrrrrrrrrrrrrrrrrrrrrrrrrrrrrrrrrrrrrr"
};
