/* XPM */
static char *xnee[] = {
/* columns rows colors chars-per-pixel */
"128 128 33 1",
"  c #000000",
". c #0A0A0A",
"X c #131313",
"o c #1B1B1B",
"O c #242424",
"+ c #2B2B2B",
"@ c #343434",
"# c #3C3C3C",
"$ c #434343",
"% c #4B4B4B",
"& c #545454",
"* c #5C5C5C",
"= c #646464",
"- c #6B6B6B",
"; c #747474",
": c #7B7B7B",
"> c #848484",
", c #8B8B8B",
"< c #949494",
"1 c #9D9D9D",
"2 c #A3A3A3",
"3 c #A8A8A8",
"4 c #B2B2B2",
"5 c #BCBCBC",
"6 c #C3C3C3",
"7 c #CCCCCC",
"8 c #D1D1D1",
"9 c #DADADA",
"0 c #E4E4E4",
"q c #EBEBEB",
"w c #F3F3F3",
"e c #FFFFFF",
"r c None",
/* pixels */
"rrrrrrrrrrrrrrrrrrrrrrrrrrrrrrrrrrrrrrrrrrrrrrrrrrrrrrrrrrrrrrrrrrrrrrrrrrrrrrrrrrrrrrrrrrrrrrrrrrrrrrrrrrrrrrrrrrrrrrrrrrrrrrrr",
"rrrrrrrrrrrrrrrrrrrrrrrrrrrrrrrrrrrrrrrrrrrrrrrrrrrrrrrrrrrrrrrrrrrrrrrrrrrrrrrrrrrrrrrrrrrrrrrrrrrrrrrrrrrrrrrrrrrrrrrrrrrrrrrr",
"rrrrrrrrrrrrrrrrrrrrrrrrrrrrrrrrrrrrrrrrrrrrrrrrrrrrrrrrrrrrrrrrrrrrrrrrrrrrrrrrrrrrrrrrrrrrrrrrrrrrrrrrrrrrrrrrrrrrrrrrrrrrrrrr",
"rrrrrrrrrrrrrrrrrrrrrrrrrrrrrrrrrrrrrrrrrrrrrrrrrrrrrrrrrrrrrrrrrrrrrrrrrrrrrrrrrrrrrrrrrrrrrrrrrrrrrrrrrrrrrrrrrrrrrrrrrrrrrrrr",
"rrrrrrrrrrrrrrrrrrrrrrrrrrrrrrrrrrrrrrrrrrrrrrrrrrrrrrrrrrrrrrrrrrrrrrrrrrrrrrrrrrrrrrrrrrrrrrrrrrrrrrrrrrrrrrrrrrrrrrrrrrrrrrrr",
"rrrrrrrrrrrrrrrrrrrrrrrrrrrrrrrrrrrrrrrrr                                                   rrrrrrrrrrrrrrrrrrrrrrrrrrrrrrrrrrrr",
"rrrrrrrrrrrrrrrrrrrrrrrrrrrrrrrrrrrrrrrrr                                                   rrrrrrrrrrrrrrrrrrrrrrrrrrrrrrrrrrrr",
"rrrrrrrrrrrrrrrrrrrrrrrrrrrrrrrrrrrrrrrrr                                                   rrrrrrrrrrrrrrrrrrrrrrrrrrrrrrrrrrrr",
"rrrrrrrrrrrrrrrrrrrrrrrrrrrrrrrrrrrrrrrrr                                                  rrrrrrrrrrrrrrrrrrrrrrrrrrrrrrrrrrrrr",
"rrrrrrrrrrrrrrrrrrrrrrrrrrrrrrrrrrrrrrrrrr   .,,>>>>>>>:::::::;:;;;;;;;------=--;===*=#    rrrrrrrrrrrrrrrrrrrrrrrrrrrrrrrrrrrrr",
"rrrrrrrrrrrrrrrrrrrrrrrrrrrrrrrrrrrrrrrrrr   .233333333333333333333323333333234we73333&    rrrrrrrrrrrrrrrrrrrrrrrrrrrrrrrrrrrrr",
"rrrrrrrrrrrrrrrrrrrrrrrrrrrrrrrrrrrrrrrrrr    133333333333333333333333333333338ee03333O    rrrrrrrrrrrrrrrrrrrrrrrrrrrrrrrrrrrrr",
"rrrrrrrrrrrrrrrrrrrrrrrrrrrrrrrrrrrrrrrrrr    ,33333333333333333333333333333339ee93332.   rrrrrrrrrrrrrrrrrrrrrrrrrrrrrrrrrrrrrr",
"rrrrrrrrrrrrrrrrrrrrrrrrrrrrrrrrrrrrrrrrrr    :33333233333333333333333333333330ee8333>    rrrrrrrrrrrrrrrrrrrrrrrrrrrrrrrrrrrrrr",
"rrrrrrrrrrrrrrrrrrrrrrrrrrrrrrrrrrrrrrrrrr    -3333333333333333333232333333333wee7333*    rrrrrrrrrrrrrrrrrrrrrrrrrrrrrrrrrrrrrr",
"rrrrrrrrrrrrrrrrrrrrrrrrrrrrrrrrrrrrrrrrrr    *3333333333333233333333333333332eee5333@    rrrrrrrrrrrrrrrrrrrrrrrrrrrrrrrrrrrrrr",
"rrrrrrrrrrrrrrrrrrrrrrrrrrrrrrrrrrrrrrrrrr    %2333333333333323333233333233334eee4333X    rrrrrrrrrrrrrrrrrrrrrrrrrrrrrrrrrrrrrr",
"rrrrrrrrrrrrrrrrrrrrrrrrrrrrrrrrrrrrrrrrrr    #3333333333332<*$OX+$=1333333335eee233<    rrrrrrrrrrrrrrrrrrrrrrrrrrrrrrrrrrrrrrr",
"rrrrrrrrrrrrrrrrrrrrrrrrrrrrrrrrrrrrrrrrrr    +32333333333<$.       .&13333337eew333-    rrrrrrrrrrrrrrrrrrrrrrrrrrrrrrrrrrrrrrr",
"rrrrrrrrrrrrrrrrrrrrrrrrrrrrrrrrrrrrrrrrrrr   X3333333333>.           X<333338ee0323$    rrrrrrrrrrrrrrrrrrrrrrrrrrrrrrrrrrrrrrr",
"rrrrrrrrrrrrrrrrrrrrrrrrrrrrrrrrrrrrrrrrrrr   .233333333,..  .%;>-$.   o123339ee9332o    rrrrrrrrrrrrrrrrrrrrrrrrrrrrrrrrrrrrrrr",
"rrrrrrrrrrrrrrrrrrrrrrrrrrrrrrrrrrrrrrrrrrr    133333332O   =7999996&   $3333qee8331    rrrrrrrrrrrrrrrrrrrrrrrrrrrrrrrrrrrrrrrr",
"rrrrrrrrrrrrrrrrrrrrrrrrrrrrrrrrrrrrrrrrrrr    <33333321   ;989999999&  .3333wee633:    rrrrrrrrrrrrrrrrrrrrrrrrrrrrrrrrrrrrrrrr",
"rrrrrrrrrrrrrrrrrrrrrrrrrrrrrrrrrrrrrrrrrrr    :3333333;  .79999999994   ,333eee532&    rrrrrrrrrrrrrrrrrrrrrrrrrrrrrrrrrrrrrrrr",
"rrrrrrrrrrrrrrrrrrrrrrrrrrrrrrrrrrrrrrrrrrr    ;3333333-  .99999999996   :334eee333+    rrrrrrrrrrrrrrrrrrrrrrrrrrrrrrrrrrrrrrrr",
"rrrrrrrrrrrrrrrrrrrrrrrrrrrrrrrrrrrrrrrrrr     *3333332<   <999999999;  .2235eew332.   rrrrrrrrrrrrrrrrrrrrrrrrrrrrrrrrrrrrrrrrr",
"rrrrrrrrrrrrrrrrrrrrrrrrrrrrrrrrrrrrrrrrr      %33333333o  .19999989,   @3337eeq33>     rrrrrrrrrrrrrrrrrrrrrrrrrrrrrrrrrrrrrrrr",
"rrrrrrrrrrrrrrrrrrrrrrrrrrrrrrrrrrrrrrr        #33323333:    @>241:O   .,3339ee033*      rrrrrrrrrrrrrrrrrrrrrrrrrrrrrrrrrrrrrrr",
"rrrrrrrrrrrrrrrrrrrrrrrrrrrrrrrrrrrrr          O333333333-            .:33339ee933@        rrrrrrrrrrrrrrrrrrrrrrrrrrrrrrrrrrrrr",
"rrrrrrrrrrrrrrrrrrrrrrrrrrrrrrrrrrr       +O   .,333333333;o         O>333336ew533X          rrrrrrrrrrrrrrrrrrrrrrrrrrrrrrrrrrr",
"rrrrrrrrrrrrrrrrrrrrrrrrrrrrrrrrr       O69>    .:2333333332-@o  .o#:333333323433<     %+     rrrrrrrrrrrrrrrrrrrrrrrrrrrrrrrrrr",
"rrrrrrrrrrrrrrrrrrrrrrrrrrrrrrr       X=5ee9+    .;333333333333212223333332333333&    X23-X     rrrrrrrrrrrrrrrrrrrrrrrrrrrrrrrr",
"rrrrrrrrrrrrrrrrrrrrrrrrrrrrr       .*<15eew:      @,33233333333333333333333323,+     ;qew5$      rrrrrrrrrrrrrrrrrrrrrrrrrrrrrr",
"rrrrrrrrrrrrrrrrrrrrrrrrrrrr      .%,11<2eee3+      .$12333333333333333333323,%      O2eeeeq1O     rrrrrrrrrrrrrrrrrrrrrrrrrrrrr",
"rrrrrrrrrrrrrrrrrrrrrrrrrr      .#,<<1<12wee5;        .@-133233333333333321*O        :19eeeee9-.     rrrrrrrrrrrrrrrrrrrrrrrrrrr",
"rrrrrrrrrrrrrrrrrrrrrrrr       @><111128weee91O           +&-:12333321:*#O          @21140eeeee6$      rrrrrrrrrrrrrrrrrrrrrrrrr",
"rrrrrrrrrrrrrrrrrrrrrr       O;1<11139eeeeee91-                .X...                ,122116weeeew2o     rrrrrrrrrrrrrrrrrrrrrrrr",
"rrrrrrrrrrrrrrrrrrrr       o-11<1<40eeeeee82,*o                                    $111121128weeeeq;.     rrrrrrrrrrrrrrrrrrrrrr",
"rrrrrrrrrrrrrrrrrr       X=<1<115qeeeeew72:$.       rrr                      rr   .<21111211139eeeee9$     rrrrrrrrrrrrrrrrrrrrr",
"rrrrrrrrrrrrrrrrr      .&<11116weeeeew61=O         rrrrrrr                rrrrr   &1112211121214qeeeee4o     rrrrrrrrrrrrrrrrrrr",
"rrrrrrrrrrrrrrr      .%,11128weeeeeq5,%X        rrrrrrrrrrrrrrrrrrrrrrrrrrrrrr    ;111211211121115weeeew,      rrrrrrrrrrrrrrrrr",
"rrrrrrrrrrrrrrr     #,1<<28eeeeee04;@         rrrrrrrrrrrrrrrrrrrrrrrrrrrrrrrr     O;111111211211227weeee0&     rrrrrrrrrrrrrrrr",
"rrrrrrrrrrrrrrr    -1<114eeeeee92*o         rrrrrrrrrrrrrrrrrrrrrrrrrrrrrrrrrrr      o-212112211121239eeeee6+     rrrrrrrrrrrrrr",
"rrrrrrrrrrrrrrr    ;<11<5eeew7,$.        rrrrrrrrrrrrrrrrrrrrrrrrrrrrrrrrrrrrrrrr      o-11211121111114qeeeew1.     rrrrrrrrrrrr",
"rrrrrrrrrrrrrrr    :<1<16eeq>+         rrrrrrrrrrrrrrrrrrrrrrrrrrrrrrrrrrrrrrrrrrrr      X=12111211121115weeeeq-     rrrrrrrrrrr",
"rrrrrrrrrrrrrrr    ;1<116eeq=       rrrrrrrrrrrrrrrrrrrrrrrrrrrrrrrrrrrrrrrrrrrrrrrrr      X*11121212121128weeee<X    rrrrrrrrrr",
"rrrrrrrrrrrrrrr    ;1<1<6ee0*     rrrrrrrrrrrrrrrrrrrrrrrrrrrrrrrrrrrrrrrrrrrrrrrrrrrrr      X*11211111122120eee2<+   rrrrrrrrrr",
"rrrrrrrrrrrrrrr    :<1<17ee0*   rrrrrrrrrrrrrrrrrrrrrrrrrrrrrrrrrrrrrrrrrrrrrrrrrrrrrrrrr      .&<12121211129ee022O   rrrrrrrrrr",
"rrrrrrrrrrrrrrr    :<<1<7ee0*   rrrrrrrrrrrrrrrrrrrrrrrrrrrrrrrrrrrrrrrrrrrrrrrrrrrrrrrrrrr      .-111122111wee61<   rrrrrrrrrrr",
"rrrrrrrrrrrrrrr    ;11117ee9&   rrrrrrrrrrrrrrrrrrrrrrrrrrrrrrrrrrrrrrrrrrrrrrrrrrrrrrrrrrrrr     -122111125eee31=   rrrrrrrrrrr",
"rrrrrrrrrrrrrrr    :11<17ee9&   rrrrrrrrrrrrrrrrrrrrrrrrrrrrrrrrrrrrrrrrrrrrrrrrrrrrrrrrrrrrrrr   ,211211229ee011+   rrrrrrrrrrr",
"rrrrrrrrrrrrrrr    ;<<1<9ee9&   rrrrrrrrrrrrrrrrrrrrrrrrrrrrrrrrrrrrrrrrrrrrrrrrrrrrrrrrrrrrrrr  .111211112wee711.  rrrrrrrrrrrr",
"rrrrrrrrrrrrrrr    ;11<19ee8&   rrrrrrrrrrrrrrrrrrrrrrrrrrrrrrrrrrrrrrrrrrrrrrrrrrrrrrrrrrrrrr   +221122224eee31-   rrrrrrrrrrrr",
"rrrrrrrrrrrrrrr    :<11<9ee8%     rrrrrrrrrrrrrrrrrrrrrrrrrrrrrrrrrrrrrrrrrrrrrrrrrrrrrrrrrrrr   %111211119eeq12#   rrrrrrrrrrrr",
"rrrrrrrrrrrrrrr    ;1<<10ee7%                                                                    -21112112wee711.  rrrrrrrrrrrrr",
"rrrrrrrrrrrrrrr    ;11<19ee7%                                                                    ,21211124eee31;   rrrrrrrrrrrrr",
"rrrrrrrrrrrrrrr    ;1<119ee7$                                                                   X112111219eeq11$   rrrrrrrrrrrrr",
"rrrrrrrrrrrrrrr    :1<<10ee6$                                                                   +21212111wee721X  rrrrrrrrrrrrrr",
"rrrrrrrrrrrrrrr    ;<11<0ee6$       *,>>>>>>>:>:::::::;;:;;;;;;--;---=-========*******&*&&@     &12121214eee32:   rrrrrrrrrrrrrr",
"rrrrrrrrrrrrrrr    :1<116ew2$       288888888888888888888887888888888888888878888888888888,     ;11111219eeq21%   rrrrrrrrrrrrrr",
"rrrrrrrrrrrrrrr    :<11<1111#       6888888888888888878888888888888888888888888888888888883     <1111112wee712o   rrrrrrrrrrrrrr",
"rrrrrrrrrrrrrrr    ;<11<<1<1#      .8888888888888888888888888888888888888888888888888888886     11221214eee41>   rrrrrrrrrrrrrrr",
"rrrrrrrrrrrrrrr    :11<111<1#      +8888888788888888878888888888878878888888888878888888888.   .21112118eew12&   rrrrrrrrrrrrrrr",
"rrrrrrrrrrrrrrr    ;<11<1<1<@      $88888-========------------;-;;-;;;;;;;:;;:;:::::1878888O    <121112qee811O   rrrrrrrrrrrrrrr",
"rrrrrrrrrrrrrrr    O*>1111<1@      =88887              ..  . . ... ... .. ..........+888888#    >1121110ee41<   rrrrrrrrrrrrrrrr",
"rrrrrrrrrrrrrrr       X$;<11@      >88884.                                          X888887*    -11212238511*   rrrrrrrrrrrrrrrr",
"rrrrrrrrrrrrrrr          .@=+      188881.      @##$$$#                 o%%          778888;    *12112111121+   rrrrrrrrrrrrrrrr",
"rrrrrrrrrrrrrrrrr                  58888>.      $eeeeee=               X9e:         .388888,    X=,11112211<.  rrrrrrrrrrrrrrrrr",
"rrrrrrrrrrrrrrrrrrrr              .77888=        >eeeeew+              3e4          .,888882       o%:11112-   rrrrrrrrrrrrrrrrr",
"rrrrrrrrrrrrrrrrrrrrrrrr          O88888%         6eeeee9.            :e9.          .-888885          .@=<1@   rrrrrrrrrrrrrrrrr",
"rrrrrrrrrrrrrrrrrrrrrrrrrrr       $78888+         oqeeeee1           %ew+            $888888.             o.  rrrrrrrrrrrrrrrrrr",
"rrrrrrrrrrrrrrrrrrrrrrrrrrrrrr    *88888X         .%eeeeee&         Oqe&             O888888O    rr           rrrrrrrrrrrrrrrrrr",
"rrrrrrrrrrrrrrrrrrrrrrrrrrrrrr    :88888            ,eeeeewo       .8e,              .888888#    rrrrrr       rrrrrrrrrrrrrrrrrr",
"rrrrrrrrrrrrrrrrrrrrrrrrrrrrr     <88885.           .7eeeee7.      2e5                688888&    rrrrrrrrr   rrrrrrrrrrrrrrrrrrr",
"rrrrrrrrrrrrrrrrrrrrrrrrrrrrr     488881.            Oweeeee,     ;e0X               .288888-    rrrrrrrrrrrrrrrrrrrrrrrrrrrrrrr",
"rrrrrrrrrrrrrrrrrrrrrrrrrrrrr    .78888>.             *eeeeew%   $ew@                .>78888,     rrrrrrrrrrrrrrrrrrrrrrrrrrrrrr",
"rrrrrrrrrrrrrrrrrrrrrrrrrrrrr    o78888-               1eeeeeqo oqe*                  =888882     rrrrrrrrrrrrrrrrrrrrrrrrrrrrrr",
"rrrrrrrrrrrrrrrrrrrrrrrrrrrrr    #88888%               .8eeeee5.7e<                   #888885     rrrrrrrrrrrrrrrrrrrrrrrrrrrrrr",
"rrrrrrrrrrrrrrrrrrrrrrrrrrrrr    &88888+                +weeee31e6.                   o888887.    rrrrrrrrrrrrrrrrrrrrrrrrrrrrrr",
"rrrrrrrrrrrrrrrrrrrrrrrrrrrrr    ;88889X                 =eee9;ewo                     888888O    rrrrrrrrrrrrrrrrrrrrrrrrrrrrrr",
"rrrrrrrrrrrrrrrrrrrrrrrrrrrr     <98887                   5ew*wee%                    .488888#    rrrrrrrrrrrrrrrrrrrrrrrrrrrrrr",
"rrrrrrrrrrrrrrrrrrrrrrrrrrrr     378885.                 #we=0eeeqo                   .188888&    rrrrrrrrrrrrrrrrrrrrrrrrrrrrrr",
"rrrrrrrrrrrrrrrrrrrrrrrrrrrr     788882.                X0e:4eeeee6.                  .;88888-    rrrrrrrrrrrrrrrrrrrrrrrrrrrrrr",
"rrrrrrrrrrrrrrrrrrrrrrrrrrrr    X88888>.                5e4.$eeeeee>                   &88878>     rrrrrrrrrrrrrrrrrrrrrrrrrrrrr",
"rrrrrrrrrrrrrrrrrrrrrrrrrrrr    @88888-.               ,e9.  >eeeeee$                  @888872     rrrrrrrrrrrrrrrrrrrrrrrrrrrrr",
"rrrrrrrrrrrrrrrrrrrrrrrrrrrr    &88888&               &ew+   .6eeeee0o                 X888885     rrrrrrrrrrrrrrrrrrrrrrrrrrrrr",
"rrrrrrrrrrrrrrrrrrrrrrrrrrrr    -88888+              +we&     oqeeeee5                  798888.    rrrrrrrrrrrrrrrrrrrrrrrrrrrrr",
"rrrrrrrrrrrrrrrrrrrrrrrrrrr     ,88888o             .9e>       $eeeeee:                .388888o    rrrrrrrrrrrrrrrrrrrrrrrrrrrrr",
"rrrrrrrrrrrrrrrrrrrrrrrrrrr     388888.             3e4.        >eeeeew#               .,88888#    rrrrrrrrrrrrrrrrrrrrrrrrrrrrr",
"rrrrrrrrrrrrrrrrrrrrrrrrrrr     688885             :e9X          6eeeee0X              .;78888%    rrrrrrrrrrrrrrrrrrrrrrrrrrrrr",
"rrrrrrrrrrrrrrrrrrrrrrrrrrr    X888883.           $ww@           oqeeeee3               %88888-    rrrrrrrrrrrrrrrrrrrrrrrrrrrrr",
"rrrrrrrrrrrrrrrrrrrrrrrrrrr    +88888,.          Oqe*             $eeeeee-              O88888>     rrrrrrrrrrrrrrrrrrrrrrrrrrrr",
"rrrrrrrrrrrrrrrrrrrrrrrrrrr    %88888;.         .7e,               >eeeeew+             .888881     rrrrrrrrrrrrrrrrrrrrrrrrrrrr",
"rrrrrrrrrrrrrrrrrrrrrrrrrrr    =88888&          *51.                <44444,              688885     rrrrrrrrrrrrrrrrrrrrrrrrrrrr",
"rrrrrrrrrrrrrrrrrrrrrrrrrr     >88888@                                                  .388888.    rrrrrrrrrrrrrrrrrrrrrrrrrrrr",
"rrrrrrrrrrrrrrrrrrrrrrrrrr     288888o                                                  .>88888o    rrrrrrrrrrrrrrrrrrrrrrrrrrrr",
"rrrrrrrrrrrrrrrrrrrrrrrrrr     588888.        .  .. .............................. ..    -88888@    rrrrrrrrrrrrrrrrrrrrrrrrrrrr",
"rrrrrrrrrrrrrrrrrrrrrrrrrr    .888887&&**==----;;;:;::::>>,,,,<<<<11122233333444455556677788888%    rrrrrrrrrrrrrrrrrrrrrrrrrrrr",
"rrrrrrrrrrrrrrrrrrrrrrrrrr    O8888888888888888888888888888888889888888888888888888888887888888-    rrrrrrrrrrrrrrrrrrrrrrrrrrrr",
"rrrrrrrrrrrrrrrrrrrrrrrrrr    $8888888888888888888888888888888887888888888888888888888878888888>    rrrrrrrrrrrrrrrrrrrrrrrrrrrr",
"rrrrrrrrrrrrrrrrrrrrrrrrrr    =88888878888888878798888888888878888888887888888888888888988888881     rrrrrrrrrrrrrrrrrrrrrrrrrrr",
"rrrrrrrrrrrrrrrrrrrrrrrrrr    @***=*======-=-=------;-;;;;;;;:;:::::::>>>>>>>>>,>,,,,,,,<,<<<<<>     rrrrrrrrrrrrrrrrrrrrrrrrrrr",
"rrrrrrrrrrrrrrrrrrrrrrrrr                                                                            rrrrrrrrrrrrrrrrrrrrrrrrrrr",
"rrrrrrrrrrrrrrrrrrrrrrrrr                                                                            rrrrrrrrrrrrrrrrrrrrrrrrrrr",
"rrrrrrrrrrrrrrrrrrrrrrrrr                                                                            rrrrrrrrrrrrrrrrrrrrrrrrrrr",
"rrrrrrrrrrrrrrrrrrrrrrrrr                                                                            rrrrrrrrrrrrrrrrrrrrrrrrrrr",
"rrrrrrrrrrrrrrrrrrrrrrrrrrrrrrrrrrrrrrrrrrrr  &>>>>>>::>::::::::;;:;;;;;;--;-@.rrrr                  rrrrrrrrrrrrrrrrrrrrrrrrrrr",
"rrrrrrrrrrrrrrrrrrrrrrrrrrrrrrrrrrrrrrrrrrrrrr.;88888888888888778888888788885.rrrrrrrrrrrrrrrrrrrrrrrrrrrrrrrrrrrrrrrrrrrrrrrrrr",
"rrrrrrrrrrrrrrrrrrrrrrrrrrrrrrrrrrrrrrrrrrrrr   +**====--;;;;;::>:>>>,,,,<<<@.rrrrrrrrrrrrrrrrrrrrrrrrrrrrrrrrrrrrrrrrrrrrrrrrrr",
"rrrrrrrrrrrrrrrrrrrrrrrrrr                                                                          rrrrrrrrrrrrrrrrrrrrrrrrrrrr",
"rrrrrrrrrrrrrrrrrrrrrrrrrr                                                                          rrrrrrrrrrrrrrrrrrrrrrrrrrrr",
"rrrrrrrrrrrrrrrrrrrrrrrrrr                                                                          rrrrrrrrrrrrrrrrrrrrrrrrrrrr",
"rrrrrrrrrrrrrrrrrrrrrrrrrr   #;;;::>>>>,,<,<<1122221111<<<<,,,,>>>:>::;;;;;----=-=-=-=--=-=--=-=$   rrrrrrrrrrrrrrrrrrrrrrrrrrrr",
"rrrrrrrrrrrrrrrrrrrrrrrrrr   -878888878888888878788878888888888888888888888888888888888888888888<   rrrrrrrrrrrrrrrrrrrrrrrrrrrr",
"rrrrrrrrrrrrrrrrrrrrrrrrrr   ;8888888888888888888888888888888888888888888888888888888888888888881    rrrrrrrrrrrrrrrrrrrrrrrrrrr",
"rrrrrrrrrrrrrrrrrrrrrrrrrr   ;8888888888888888888888888888888888788888888888888888888888888888882    rrrrrrrrrrrrrrrrrrrrrrrrrrr",
"rrrrrrrrrrrrrrrrrrrrrrrrrr   ;8888888888888888888888888888888888888888888888888888888888888888883    rrrrrrrrrrrrrrrrrrrrrrrrrrr",
"rrrrrrrrrrrrrrrrrrrrrrrrrr   :8888888888888888888888788888878888888888888888888888888888888888884    rrrrrrrrrrrrrrrrrrrrrrrrrrr",
"rrrrrrrrrrrrrrrrrrrrrrrrrr   >8897888888888888887988888887887888888888888888878888798888888888886    rrrrrrrrrrrrrrrrrrrrrrrrrrr",
"rrrrrrrrrrrrrrrrrrrrrrrrrr   +%$$$$$$$$$$$$#$##$#############@#@@#@@@@@@@@+@@@@++@+++++++++O+O+OO    rrrrrrrrrrrrrrrrrrrrrrrrrrr",
"rrrrrrrrrrrrrrrrrrrrrrrrrr                                                                           rrrrrrrrrrrrrrrrrrrrrrrrrrr",
"rrrrrrrrrrrrrrrrrrrrrrrrrr                                                                           rrrrrrrrrrrrrrrrrrrrrrrrrrr",
"rrrrrrrrrrrrrrrrrrrrrrrrrr                                                                           rrrrrrrrrrrrrrrrrrrrrrrrrrr",
"rrrrrrrrrrrrrrrrrrrrrrrrrrrrrrrrrrrrrrrrrrrrrrrrrrrrrrrrrrrrrrrrrrrrrrrrrrrrrrrrrrrrrrrrrrrrrrrrrrrrrrrrrrrrrrrrrrrrrrrrrrrrrrrr",
"rrrrrrrrrrrrrrrrrrrrrrrrrrrrrrrrrrrrrrrrrrrrrrrrrrrrrrrrrrrrrrrrrrrrrrrrrrrrrrrrrrrrrrrrrrrrrrrrrrrrrrrrrrrrrrrrrrrrrrrrrrrrrrrr",
"rrrrrrrrrrrrrrrrrrrrrrrrrrrrrrrrrrrrrrrrrrrrrrrrrrrrrrrrrrrrrrrrrrrrrrrrrrrrrrrrrrrrrrrrrrrrrrrrrrrrrrrrrrrrrrrrrrrrrrrrrrrrrrrr",
"rrrrrrrrrrrrrrrrrrrrrrrrrrrrrrrrrrrrrrrrrrrrrrrrrrrrrrrrrrrrrrrrrrrrrrrrrrrrrrrrrrrrrrrrrrrrrrrrrrrrrrrrrrrrrrrrrrrrrrrrrrrrrrrr",
"rrrrrrrrrrrrrrrrrrrrrrrrrrrrrrrrrrrrrrrrrrrrrrrrrrrrrrrrrrrrrrrrrrrrrrrrrrrrrrrrrrrrrrrrrrrrrrrrrrrrrrrrrrrrrrrrrrrrrrrrrrrrrrrr"
};
